<?xml version="1.0" encoding="UTF-8" standalone="no"?>
<!DOCTYPE svg PUBLIC "-//W3C//DTD SVG 1.1//EN" "http://www.w3.org/Graphics/SVG/1.1/DTD/svg11.dtd">
<svg version="1.1" xmlns="http://www.w3.org/2000/svg" xmlns:xlink="http://www.w3.org/1999/xlink" preserveAspectRatio="xMidYMid meet" viewBox="0 0 640 640" width="512" height="512"><defs><path d="M640 0C640 213.33 640 426.67 640 640C426.67 640 213.33 640 0 640C0 426.67 0 213.33 0 0C213.33 0 426.67 0 640 0Z" id="b1BkrNNUHg"></path><path d="M366.67 440C366.67 371.33 366.67 302.67 366.67 234C380 234 393.33 234 406.67 234C406.67 302.67 406.67 371.33 406.67 440C406.67 440 406.67 440 406.67 440C393.33 440 380 440 366.67 440ZM300 440C300 371.33 300 302.67 300 234C313.33 234 326.67 234 340 234C340 302.67 340 371.33 340 440C340 440 340 440 340 440C326.67 440 313.33 440 300 440ZM233.33 440C233.33 371.33 233.33 302.67 233.33 234C246.67 234 260 234 273.33 234C273.33 302.67 273.33 371.33 273.33 440C273.33 440 273.33 440 273.33 440C260 440 246.67 440 233.33 440ZM240 133.33C198.67 174.67 174.67 198.67 133.33 240C133.33 320 133.33 400 133.33 480C144 490.67 149.33 496 160 506.67C266.67 506.67 373.33 506.67 480 506.67C490.67 496 496 490.67 506.67 480C506.67 400 506.67 320 506.67 240C465.33 198.67 441.33 174.67 400 133.33C400 133.33 400 133.33 400 133.33C346.67 133.33 293.33 133.33 240 133.33Z" id="cM9dahftI"></path></defs><g><g><g><g><use xlink:href="#b1BkrNNUHg" opacity="1" fill-opacity="0" stroke="#000000" stroke-width="1" stroke-opacity="0"></use></g></g><g><use xlink:href="#cM9dahftI" opacity="1" fill="#ffffff" fill-opacity="1"></use><g><use xlink:href="#cM9dahftI" opacity="1" fill-opacity="0" stroke="#000000" stroke-width="1" stroke-opacity="0"></use></g></g></g></g></svg>