<?xml version="1.0" encoding="UTF-8" standalone="no"?>
<!DOCTYPE svg PUBLIC "-//W3C//DTD SVG 20010904//EN" "http://www.w3.org/TR/2001/REC-SVG-20010904/DTD/svg10.dtd"[]>
<svg version="1.1" id="Frosty Editor v1.0.5.3" xmlns="http://www.w3.org/2000/svg" d1p1:xlink="http://www.w3.org/1999/xlink" viewBox="0 0 96 96" xmlns:d1p1="xmlns">
  <path stroke="none" fill="#ffffffff" d="M 46.400,28.500 C 39.367,40.667 32.333,52.833 25.300,65.000 24.600,66.200 25.500,67.700 26.800,67.700 28.800,67.700 30.800,67.700 32.800,67.700 37.833,58.933 42.867,50.167 47.900,41.400 51.300,47.333 54.700,53.267 58.100,59.200 58.200,59.367 58.300,59.533 58.400,59.700 56.600,59.700 54.800,59.700 53.000,59.700 51.333,57.033 49.667,54.367 48.000,51.700 46.500,54.200 45.000,56.700 43.500,59.200 45.133,62.033 46.767,64.867 48.400,67.700 55.300,67.700 62.200,67.700 69.100,67.700 70.500,67.700 71.300,66.200 70.600,65.000 63.567,52.833 56.533,40.667 49.500,28.500 48.800,27.400 47.100,27.400 46.400,28.500 46.400,28.500 46.400,28.500 46.400,28.500 Z M 16.400,61.700 C 24.233,48.133 32.067,34.567 39.900,21.000 43.500,14.800 52.400,14.800 56.000,21.000 63.833,34.567 71.667,48.133 79.500,61.700 83.100,67.900 78.600,75.700 71.400,75.700 55.733,75.700 40.067,75.700 24.400,75.700 17.300,75.700 12.800,67.900 16.400,61.700 16.400,61.700 16.400,61.700 16.400,61.700 Z " />
</svg>