<?xml version="1.0" encoding="UTF-8" standalone="no"?>
<!DOCTYPE svg PUBLIC "-//W3C//DTD SVG 1.1//EN" "http://www.w3.org/Graphics/SVG/1.1/DTD/svg11.dtd">
<svg version="1.1" xmlns="http://www.w3.org/2000/svg" xmlns:xlink="http://www.w3.org/1999/xlink" preserveAspectRatio="xMidYMid meet" viewBox="0 0 640 640" width="512" height="512"><defs><path d="M640 0C640 213.33 640 426.67 640 640C426.67 640 213.33 640 0 640C0 426.67 0 213.33 0 0C213.33 0 426.67 0 640 0Z" id="c56bD6ylDW"></path><path d="M340 333.33C326.67 333.33 313.33 333.33 300 333.33C300 320 300 306.67 300 293.33C288.89 293.33 277.78 293.33 266.67 293.33C284.45 266.67 302.22 240 320 213.33C337.78 240 355.55 266.67 373.33 293.33C362.22 293.33 351.11 293.33 340 293.33C340 293.33 340 293.33 340 293.33C340 306.67 340 320 340 333.33ZM300 413.33C300 400 300 386.67 300 373.33C313.33 373.33 326.67 373.33 340 373.33C340 386.67 340 400 340 413.33C340 413.33 340 413.33 340 413.33C326.67 413.33 313.33 413.33 300 413.33ZM133.33 320C133.33 423.33 216.67 506.67 320 506.67C423.33 506.67 506.67 423.33 506.67 320C506.67 216.67 423.33 133.33 320 133.33C320 133.33 320 133.33 320 133.33C216.67 133.33 133.33 216.67 133.33 320Z" id="e1YTshXk3M"></path></defs><g><g><g><g><use xlink:href="#c56bD6ylDW" opacity="1" fill-opacity="0" stroke="#000000" stroke-width="1" stroke-opacity="0"></use></g></g><g><use xlink:href="#e1YTshXk3M" opacity="1" fill="#ffffff" fill-opacity="1"></use><g><use xlink:href="#e1YTshXk3M" opacity="1" fill-opacity="0" stroke="#000000" stroke-width="1" stroke-opacity="0"></use></g></g></g></g></svg>