<?xml version="1.0" encoding="UTF-8" standalone="no"?>
<!DOCTYPE svg PUBLIC "-//W3C//DTD SVG 1.1//EN" "http://www.w3.org/Graphics/SVG/1.1/DTD/svg11.dtd">
<svg version="1.1" xmlns="http://www.w3.org/2000/svg" xmlns:xlink="http://www.w3.org/1999/xlink" preserveAspectRatio="xMidYMid meet" viewBox="0 0 640 640" width="512" height="512"><defs><path d="M640 0C640 213.33 640 426.67 640 640C426.67 640 213.33 640 0 640C0 426.67 0 213.33 0 0C213.33 0 426.67 0 640 0Z" id="iapITYrjlc"></path><path d="M366.67 313.33C366.67 288.89 366.67 264.45 366.67 240C380 240 393.33 240 406.67 240C406.67 264.45 406.67 288.89 406.67 313.33C406.67 313.33 406.67 313.33 406.67 313.33C393.33 313.33 380 313.33 366.67 313.33ZM366.67 406.67C366.67 384.45 366.67 362.22 366.67 340C380 340 393.33 340 406.67 340C406.67 362.22 406.67 384.45 406.67 406.67C406.67 406.67 406.67 406.67 406.67 406.67C393.33 406.67 380 406.67 366.67 406.67ZM300 313.33C300 288.89 300 264.45 300 240C313.33 240 326.67 240 340 240C340 264.45 340 288.89 340 313.33C340 313.33 340 313.33 340 313.33C326.67 313.33 313.33 313.33 300 313.33ZM300 406.67C300 384.45 300 362.22 300 340C313.33 340 326.67 340 340 340C340 362.22 340 384.45 340 406.67C340 406.67 340 406.67 340 406.67C326.67 406.67 313.33 406.67 300 406.67ZM233.33 313.33C233.33 288.89 233.33 264.45 233.33 240C246.67 240 260 240 273.33 240C273.33 264.45 273.33 288.89 273.33 313.33C273.33 313.33 273.33 313.33 273.33 313.33C260 313.33 246.67 313.33 233.33 313.33ZM233.33 406.67C233.33 384.45 233.33 362.22 233.33 340C246.67 340 260 340 273.33 340C273.33 362.22 273.33 384.45 273.33 406.67C273.33 406.67 273.33 406.67 273.33 406.67C260 406.67 246.67 406.67 233.33 406.67ZM160 133.33C149.33 144 144 149.33 133.33 160C133.33 266.67 133.33 373.33 133.33 480C144 490.67 149.33 496 160 506.67C266.67 506.67 373.33 506.67 480 506.67C490.67 496 496 490.67 506.67 480C506.67 373.33 506.67 266.67 506.67 160C496 149.33 490.67 144 480 133.33C480 133.33 480 133.33 480 133.33C373.33 133.33 266.67 133.33 160 133.33Z" id="d2Kwjudf9s"></path></defs><g><g><g><g><use xlink:href="#iapITYrjlc" opacity="1" fill-opacity="0" stroke="#000000" stroke-width="1" stroke-opacity="0"></use></g></g><g><use xlink:href="#d2Kwjudf9s" opacity="1" fill="#ffffff" fill-opacity="1"></use><g><use xlink:href="#d2Kwjudf9s" opacity="1" fill-opacity="0" stroke="#000000" stroke-width="1" stroke-opacity="0"></use></g></g></g></g></svg>