<?xml version="1.0" encoding="UTF-8" standalone="no"?>
<!DOCTYPE svg PUBLIC "-//W3C//DTD SVG 1.1//EN" "http://www.w3.org/Graphics/SVG/1.1/DTD/svg11.dtd">
<svg version="1.1" xmlns="http://www.w3.org/2000/svg" xmlns:xlink="http://www.w3.org/1999/xlink" preserveAspectRatio="xMidYMid meet" viewBox="0 0 640 640" width="512" height="512"><defs><path d="M640 0C640 213.33 640 426.67 640 640C426.67 640 213.33 640 0 640C0 426.67 0 213.33 0 0C213.33 0 426.67 0 640 0Z" id="a4uICwvqbx"></path><path d="M380 446.67C380 402.22 380 357.78 380 313.33C393.33 313.33 406.67 313.33 420 313.33C420 357.78 420 402.22 420 446.67C420 446.67 420 446.67 420 446.67C406.67 446.67 393.33 446.67 380 446.67ZM300 406.67C300 340 300 273.33 300 206.67C313.33 206.67 326.67 206.67 340 206.67C340 273.33 340 340 340 406.67C340 406.67 340 406.67 340 406.67C326.67 406.67 313.33 406.67 300 406.67ZM220 446.67C220 402.22 220 357.78 220 313.33C233.33 313.33 246.67 313.33 260 313.33C260 357.78 260 402.22 260 446.67C260 446.67 260 446.67 260 446.67C246.67 446.67 233.33 446.67 220 446.67ZM133.33 333.33C133.33 391.11 133.33 448.89 133.33 506.67C257.78 506.67 382.22 506.67 506.67 506.67C506.67 448.89 506.67 391.11 506.67 333.33C444.45 257.78 382.22 182.22 320 106.67C320 106.67 320 106.67 320 106.67C257.78 182.22 195.55 257.78 133.33 333.33Z" id="blcM9Ia06"></path></defs><g><g><g><g><use xlink:href="#a4uICwvqbx" opacity="1" fill-opacity="0" stroke="#000000" stroke-width="1" stroke-opacity="0"></use></g></g><g><use xlink:href="#blcM9Ia06" opacity="1" fill="#ffffff" fill-opacity="1"></use><g><use xlink:href="#blcM9Ia06" opacity="1" fill-opacity="0" stroke="#000000" stroke-width="1" stroke-opacity="0"></use></g></g></g></g></svg>