<?xml version="1.0" encoding="UTF-8" standalone="no"?>
<!DOCTYPE svg PUBLIC "-//W3C//DTD SVG 1.1//EN" "http://www.w3.org/Graphics/SVG/1.1/DTD/svg11.dtd">
<svg version="1.1" xmlns="http://www.w3.org/2000/svg" xmlns:xlink="http://www.w3.org/1999/xlink" preserveAspectRatio="xMidYMid meet" viewBox="0 0 640 640" width="512" height="512"><defs><path d="M640 0C640 213.33 640 426.67 640 640C426.67 640 213.33 640 0 640C0 426.67 0 213.33 0 0C213.33 0 426.67 0 640 0Z" id="a1eZroTgmZ"></path><path d="M293.33 320C275.55 320 257.78 320 240 320C275.55 284.45 311.11 248.89 346.67 213.33C346.67 248.89 346.67 284.45 346.67 320C364.45 320 382.22 320 400 320C364.45 355.55 328.89 391.11 293.33 426.67C293.33 426.67 293.33 426.67 293.33 426.67C293.33 391.11 293.33 355.55 293.33 320ZM133.33 320C133.33 423.33 216.67 506.67 320 506.67C423.33 506.67 506.67 423.33 506.67 320C506.67 216.67 423.33 133.33 320 133.33C320 133.33 320 133.33 320 133.33C216.67 133.33 133.33 216.67 133.33 320Z" id="ajVW4113Q"></path></defs><g><g><g><g><use xlink:href="#a1eZroTgmZ" opacity="1" fill-opacity="0" stroke="#000000" stroke-width="1" stroke-opacity="0"></use></g></g><g><use xlink:href="#ajVW4113Q" opacity="1" fill="#ffffff" fill-opacity="1"></use><g><use xlink:href="#ajVW4113Q" opacity="1" fill-opacity="0" stroke="#000000" stroke-width="1" stroke-opacity="0"></use></g></g></g></g></svg>