<?xml version="1.0" encoding="UTF-8" standalone="no"?>
<!DOCTYPE svg PUBLIC "-//W3C//DTD SVG 1.1//EN" "http://www.w3.org/Graphics/SVG/1.1/DTD/svg11.dtd">
<svg version="1.1" xmlns="http://www.w3.org/2000/svg" xmlns:xlink="http://www.w3.org/1999/xlink" preserveAspectRatio="xMidYMid meet" viewBox="0 0 640 640" width="512" height="512"><defs><path d="M640 0C640 213.33 640 426.67 640 640C426.67 640 213.33 640 0 640C0 426.67 0 213.33 0 0C213.33 0 426.67 0 640 0Z" id="eVRf67Jfw"></path><path d="M373.33 346.67C373.33 364.45 373.33 382.22 373.33 400C377.78 400 382.22 400 386.67 400C386.67 413.33 386.67 426.67 386.67 440C368.89 440 351.11 440 333.33 440C333.33 408.89 333.33 377.78 333.33 346.67C324.45 346.67 315.55 346.67 306.67 346.67C306.67 377.78 306.67 408.89 306.67 440C288.89 440 271.11 440 253.33 440C253.33 426.67 253.33 413.33 253.33 400C257.78 400 262.22 400 266.67 400C266.67 382.22 266.67 364.45 266.67 346.67C259.33 346.67 253.33 340.67 253.33 333.33C253.33 297.78 253.33 262.22 253.33 226.67C253.33 219.33 259.33 213.33 266.67 213.33C302.22 213.33 337.78 213.33 373.33 213.33C380.67 213.33 386.67 219.33 386.67 226.67C386.67 262.22 386.67 297.78 386.67 333.33C386.67 333.33 386.67 333.33 386.67 333.33C386.67 340.67 380.67 346.67 373.33 346.67ZM160 133.33C149.33 144 144 149.33 133.33 160C133.33 266.67 133.33 373.33 133.33 480C144 490.67 149.33 496 160 506.67C266.67 506.67 373.33 506.67 480 506.67C490.67 496 496 490.67 506.67 480C506.67 373.33 506.67 266.67 506.67 160C496 149.33 490.67 144 480 133.33C480 133.33 480 133.33 480 133.33C373.33 133.33 266.67 133.33 160 133.33Z" id="e2Oco87C4w"></path></defs><g><g><g><g><use xlink:href="#eVRf67Jfw" opacity="1" fill-opacity="0" stroke="#000000" stroke-width="1" stroke-opacity="0"></use></g></g><g><use xlink:href="#e2Oco87C4w" opacity="1" fill="#ffffff" fill-opacity="1"></use><g><use xlink:href="#e2Oco87C4w" opacity="1" fill-opacity="0" stroke="#000000" stroke-width="1" stroke-opacity="0"></use></g></g></g></g></svg>