<?xml version="1.0" encoding="UTF-8" standalone="no"?>
<!DOCTYPE svg PUBLIC "-//W3C//DTD SVG 1.1//EN" "http://www.w3.org/Graphics/SVG/1.1/DTD/svg11.dtd">
<svg version="1.1" xmlns="http://www.w3.org/2000/svg" xmlns:xlink="http://www.w3.org/1999/xlink" preserveAspectRatio="xMidYMid meet" viewBox="0 0 640 640" width="512" height="512"><defs><path d="M640 0C640 213.33 640 426.67 640 640C426.67 640 213.33 640 0 640C0 426.67 0 213.33 0 0C213.33 0 426.67 0 640 0Z" id="a1nvudgUNj"></path><path d="M240.67 320C267.11 327.11 293.55 334.22 320 341.33C346.45 334.22 372.89 327.11 399.33 320C399.33 384.67 364 436.67 320 436.67C320 436.67 320 436.67 320 436.67C276 436.67 240.67 384.67 240.67 320ZM396.67 286.67C371.11 293.55 345.55 300.45 320 307.33C294.45 300.45 268.89 293.55 243.33 286.67C254 238 284 203.33 320 203.33C320 203.33 320 203.33 320 203.33C356 203.33 386 238 396.67 286.67ZM133.33 320C133.33 423.33 216.67 506.67 320 506.67C423.33 506.67 506.67 423.33 506.67 320C506.67 216.67 423.33 133.33 320 133.33C320 133.33 320 133.33 320 133.33C216.67 133.33 133.33 216.67 133.33 320Z" id="e1JBc2OJTR"></path></defs><g><g><g><g><use xlink:href="#a1nvudgUNj" opacity="1" fill-opacity="0" stroke="#000000" stroke-width="1" stroke-opacity="0"></use></g></g><g><use xlink:href="#e1JBc2OJTR" opacity="1" fill="#ffffff" fill-opacity="1"></use><g><use xlink:href="#e1JBc2OJTR" opacity="1" fill-opacity="0" stroke="#000000" stroke-width="1" stroke-opacity="0"></use></g></g></g></g></svg>