<?xml version="1.0" encoding="UTF-8" standalone="no"?>
<!DOCTYPE svg PUBLIC "-//W3C//DTD SVG 20010904//EN" "http://www.w3.org/TR/2001/REC-SVG-20010904/DTD/svg10.dtd"[]>
<svg version="1.1" id="Frosty Editor v1.0.5.3" xmlns="http://www.w3.org/2000/svg" d1p1:xlink="http://www.w3.org/1999/xlink" viewBox="0 0 96 96" xmlns:d1p1="xmlns">
  <path stroke="none" fill="#ff000000" d="M 0.000,0.000 C 32.000,0.000 64.000,0.000 96.000,0.000 96.000,32.000 96.000,64.000 96.000,96.000 64.000,96.000 32.000,96.000 0.000,96.000 0.000,64.000 0.000,32.000 0.000,0.000 Z " />
  <path stroke="none" fill="#ffe99c00" d="M 64.000,66.000 C 61.333,66.000 58.667,66.000 56.000,66.000 56.000,54.000 56.000,42.000 56.000,30.000 58.667,30.000 61.333,30.000 64.000,30.000 64.000,42.000 64.000,54.000 64.000,66.000 64.000,66.000 64.000,66.000 64.000,66.000 Z M 52.000,60.000 C 49.333,60.000 46.667,60.000 44.000,60.000 44.000,52.000 44.000,44.000 44.000,36.000 46.667,36.000 49.333,36.000 52.000,36.000 52.000,44.000 52.000,52.000 52.000,60.000 52.000,60.000 52.000,60.000 52.000,60.000 Z M 40.000,66.000 C 37.333,66.000 34.667,66.000 32.000,66.000 32.000,54.000 32.000,42.000 32.000,30.000 34.667,30.000 37.333,30.000 40.000,30.000 40.000,42.000 40.000,54.000 40.000,66.000 40.000,66.000 40.000,66.000 40.000,66.000 Z M 74.000,20.000 C 56.667,20.000 39.333,20.000 22.000,20.000 20.900,20.000 20.000,20.900 20.000,22.000 20.000,39.333 20.000,56.667 20.000,74.000 20.000,75.100 20.900,76.000 22.000,76.000 39.333,76.000 56.667,76.000 74.000,76.000 75.100,76.000 76.000,75.100 76.000,74.000 76.000,56.667 76.000,39.333 76.000,22.000 76.000,20.900 75.100,20.000 74.000,20.000 74.000,20.000 74.000,20.000 74.000,20.000 Z " />
  <path stroke="none" fill="#ffffffff" d="M 56.000,64.000 C 53.333,59.500 50.667,55.000 48.000,50.500 45.333,55.000 42.667,59.500 40.000,64.000 37.667,64.000 35.333,64.000 33.000,64.000 37.133,57.000 41.267,50.000 45.400,43.000 47.133,43.000 48.867,43.000 50.600,43.000 54.733,50.000 58.867,57.000 63.000,64.000 60.667,64.000 58.333,64.000 56.000,64.000 56.000,64.000 56.000,64.000 56.000,64.000 Z M 55.100,19.000 C 50.433,19.000 45.767,19.000 41.100,19.000 32.433,34.000 23.767,49.000 15.100,64.000 17.433,68.000 19.767,72.000 22.100,76.000 39.433,76.000 56.767,76.000 74.100,76.000 76.367,72.000 78.633,68.000 80.900,64.000 72.300,49.000 63.700,34.000 55.100,19.000 55.100,19.000 55.100,19.000 55.100,19.000 Z " />
</svg>