<?xml version="1.0" encoding="UTF-8" standalone="no"?>
<!DOCTYPE svg PUBLIC "-//W3C//DTD SVG 20010904//EN" "http://www.w3.org/TR/2001/REC-SVG-20010904/DTD/svg10.dtd"[]>
<svg version="1.1" id="Frosty Editor v1.0.5.3" xmlns="http://www.w3.org/2000/svg" d1p1:xlink="http://www.w3.org/1999/xlink" viewBox="0 0 96 96" xmlns:d1p1="xmlns">
  <path stroke="none" fill="#ffffffff" d="M 61.500,66.000 C 60.500,66.000 59.500,66.000 58.500,66.000 57.100,66.000 56.000,64.900 56.000,63.500 56.000,53.167 56.000,42.833 56.000,32.500 56.000,31.100 57.100,30.000 58.500,30.000 59.500,30.000 60.500,30.000 61.500,30.000 62.900,30.000 64.000,31.100 64.000,32.500 64.000,42.833 64.000,53.167 64.000,63.500 64.000,64.900 62.900,66.000 61.500,66.000 61.500,66.000 61.500,66.000 61.500,66.000 Z M 49.500,60.000 C 48.500,60.000 47.500,60.000 46.500,60.000 45.100,60.000 44.000,58.900 44.000,57.500 44.000,51.167 44.000,44.833 44.000,38.500 44.000,37.100 45.100,36.000 46.500,36.000 47.500,36.000 48.500,36.000 49.500,36.000 50.900,36.000 52.000,37.100 52.000,38.500 52.000,44.833 52.000,51.167 52.000,57.500 52.000,58.900 50.900,60.000 49.500,60.000 49.500,60.000 49.500,60.000 49.500,60.000 Z M 37.500,66.000 C 36.500,66.000 35.500,66.000 34.500,66.000 33.100,66.000 32.000,64.900 32.000,63.500 32.000,53.167 32.000,42.833 32.000,32.500 32.000,31.100 33.100,30.000 34.500,30.000 35.500,30.000 36.500,30.000 37.500,30.000 38.900,30.000 40.000,31.100 40.000,32.500 40.000,42.833 40.000,53.167 40.000,63.500 40.000,64.900 38.900,66.000 37.500,66.000 37.500,66.000 37.500,66.000 37.500,66.000 Z M 65.700,20.000 C 53.900,20.000 42.100,20.000 30.300,20.000 24.600,20.000 20.000,24.600 20.000,30.300 20.000,42.100 20.000,53.900 20.000,65.700 20.000,71.400 24.600,76.000 30.300,76.000 42.100,76.000 53.900,76.000 65.700,76.000 71.400,76.000 76.000,71.400 76.000,65.700 76.000,53.900 76.000,42.100 76.000,30.300 76.000,24.600 71.400,20.000 65.700,20.000 65.700,20.000 65.700,20.000 65.700,20.000 Z " />
</svg>