<?xml version="1.0" encoding="UTF-8" standalone="no"?>
<!DOCTYPE svg PUBLIC "-//W3C//DTD SVG 20010904//EN" "http://www.w3.org/TR/2001/REC-SVG-20010904/DTD/svg10.dtd"[]>
<svg version="1.1" id="Frosty Editor v1.0.5.3" xmlns="http://www.w3.org/2000/svg" d1p1:xlink="http://www.w3.org/1999/xlink" viewBox="0 0 96 96" xmlns:d1p1="xmlns">
  <path stroke="none" fill="#ffffffff" d="M 69.000,49.300 C 69.000,50.200 68.300,51.000 67.300,51.000 63.100,51.000 58.900,51.000 54.700,51.000 53.800,51.000 53.000,50.300 53.000,49.300 53.000,48.400 53.000,47.500 53.000,46.600 53.000,45.700 53.700,44.900 54.700,44.900 58.933,44.900 63.167,44.900 67.400,44.900 68.300,44.900 69.100,45.600 69.100,46.600 69.100,47.500 69.100,48.400 69.100,49.300 69.067,49.300 69.033,49.300 69.000,49.300 Z M 51.000,41.300 C 51.000,42.200 50.300,43.000 49.300,43.000 48.400,43.000 47.500,43.000 46.600,43.000 45.700,43.000 44.900,42.300 44.900,41.300 44.900,37.100 44.900,32.900 44.900,28.700 44.900,27.800 45.600,27.000 46.600,27.000 47.500,27.000 48.400,27.000 49.300,27.000 50.200,27.000 51.000,27.700 51.000,28.700 51.000,32.900 51.000,37.100 51.000,41.300 51.000,41.300 51.000,41.300 51.000,41.300 Z M 51.000,67.300 C 51.000,68.200 50.300,69.000 49.300,69.000 48.400,69.000 47.500,69.000 46.600,69.000 45.700,69.000 44.900,68.300 44.900,67.300 44.900,63.100 44.900,58.900 44.900,54.700 44.900,53.800 45.600,53.000 46.600,53.000 47.500,53.000 48.400,53.000 49.300,53.000 50.200,53.000 51.000,53.700 51.000,54.700 51.000,58.900 51.000,63.100 51.000,67.300 51.000,67.300 51.000,67.300 51.000,67.300 Z M 43.000,49.300 C 43.000,50.200 42.300,51.000 41.300,51.000 37.100,51.000 32.900,51.000 28.700,51.000 27.800,51.000 27.000,50.300 27.000,49.300 27.000,48.400 27.000,47.500 27.000,46.600 27.000,45.700 27.700,44.900 28.700,44.900 32.933,44.900 37.167,44.900 41.400,44.900 42.300,44.900 43.100,45.600 43.100,46.600 43.100,47.500 43.100,48.400 43.100,49.300 43.067,49.300 43.033,49.300 43.000,49.300 Z M 74.100,34.500 C 69.900,30.300 65.700,26.100 61.500,21.900 60.300,20.700 58.600,20.000 56.800,20.000 50.900,20.000 45.000,20.000 39.100,20.000 37.400,20.000 35.700,20.700 34.400,21.900 30.233,26.100 26.067,30.300 21.900,34.500 20.700,35.700 20.000,37.400 20.000,39.200 20.000,45.100 20.000,51.000 20.000,56.900 20.000,58.600 20.700,60.300 21.900,61.600 26.067,65.767 30.233,69.933 34.400,74.100 35.600,75.300 37.300,76.000 39.100,76.000 45.000,76.000 50.900,76.000 56.800,76.000 58.500,76.000 60.200,75.300 61.500,74.100 65.667,69.933 69.833,65.767 74.000,61.600 75.200,60.400 75.900,58.700 75.900,56.900 75.900,50.967 75.900,45.033 75.900,39.100 76.000,37.400 75.300,35.700 74.100,34.500 74.100,34.500 74.100,34.500 74.100,34.500 Z " />
</svg>