<?xml version="1.0" encoding="UTF-8" standalone="no"?>
<!DOCTYPE svg PUBLIC "-//W3C//DTD SVG 1.1//EN" "http://www.w3.org/Graphics/SVG/1.1/DTD/svg11.dtd">
<svg version="1.1" xmlns="http://www.w3.org/2000/svg" xmlns:xlink="http://www.w3.org/1999/xlink" preserveAspectRatio="xMidYMid meet" viewBox="0 0 640 640" width="512" height="512"><defs><path d="M640 0C640 213.33 640 426.67 640 640C426.67 640 213.33 640 0 640C0 426.67 0 213.33 0 0C213.33 0 426.67 0 640 0Z" id="b1V4LBXGaU"></path><path d="M497.97 317.38C437.74 255.65 377.52 193.91 317.29 132.19C259.61 193.91 201.91 255.65 144.23 317.38C262.14 317.38 380.05 317.38 497.97 317.38Z" id="darZd6PMy"></path><path d="M498.29 503.79C438.07 442.06 377.85 380.33 317.62 318.59C259.93 380.33 202.24 442.06 144.55 503.79C262.47 503.79 380.38 503.79 498.29 503.79Z" id="jqm375EPU"></path></defs><g><g><g><g><use xlink:href="#b1V4LBXGaU" opacity="1" fill-opacity="0" stroke="#000000" stroke-width="1" stroke-opacity="0"></use></g></g><g><use xlink:href="#darZd6PMy" opacity="1" fill="#ffffff" fill-opacity="1"></use><g><use xlink:href="#darZd6PMy" opacity="1" fill-opacity="0" stroke="#000000" stroke-width="1" stroke-opacity="0"></use></g></g><g><use xlink:href="#jqm375EPU" opacity="1" fill="#ffffff" fill-opacity="1"></use><g><use xlink:href="#jqm375EPU" opacity="1" fill-opacity="0" stroke="#000000" stroke-width="1" stroke-opacity="0"></use></g></g></g></g></svg>