<?xml version="1.0" encoding="UTF-8" standalone="no"?>
<!DOCTYPE svg PUBLIC "-//W3C//DTD SVG 20010904//EN" "http://www.w3.org/TR/2001/REC-SVG-20010904/DTD/svg10.dtd"[]>
<svg version="1.1" id="Frosty Editor v1.0.5.3" xmlns="http://www.w3.org/2000/svg" d1p1:xlink="http://www.w3.org/1999/xlink" viewBox="0 0 96 96" xmlns:d1p1="xmlns">
  <path stroke="none" fill="#ffffffff" d="M 47.100,33.100 C 41.033,39.167 34.967,45.233 28.900,51.300 28.400,51.800 27.600,51.800 27.200,51.300 26.367,50.467 25.533,49.633 24.700,48.800 24.200,48.300 24.200,47.500 24.700,47.100 31.967,39.833 39.233,32.567 46.500,25.300 47.300,24.500 48.700,24.500 49.500,25.300 56.767,32.567 64.033,39.833 71.300,47.100 71.800,47.600 71.800,48.400 71.300,48.800 70.467,49.633 69.633,50.467 68.800,51.300 68.300,51.800 67.500,51.800 67.100,51.300 61.033,45.233 54.967,39.167 48.900,33.100 48.400,32.600 47.600,32.600 47.100,33.100 47.100,33.100 47.100,33.100 47.100,33.100 Z M 59.200,59.200 C 55.767,55.767 52.333,52.333 48.900,48.900 48.400,48.400 47.700,48.400 47.200,48.900 43.733,52.333 40.267,55.767 36.800,59.200 36.300,59.700 35.500,59.700 35.100,59.200 34.267,58.367 33.433,57.533 32.600,56.700 32.100,56.200 32.100,55.400 32.600,55.000 37.233,50.367 41.867,45.733 46.500,41.100 47.300,40.300 48.700,40.300 49.500,41.100 54.133,45.733 58.767,50.367 63.400,55.000 63.900,55.500 63.900,56.300 63.400,56.700 62.600,57.533 61.800,58.367 61.000,59.200 60.500,59.700 59.700,59.700 59.200,59.200 59.200,59.200 59.200,59.200 59.200,59.200 Z M 43.600,18.800 C 35.333,27.067 27.067,35.333 18.800,43.600 16.400,46.000 16.400,50.000 18.800,52.500 27.067,60.767 35.333,69.033 43.600,77.300 46.000,79.700 50.000,79.700 52.500,77.300 60.767,69.033 69.033,60.767 77.300,52.500 79.700,50.100 79.700,46.100 77.300,43.600 69.000,35.333 60.700,27.067 52.400,18.800 50.000,16.400 46.000,16.400 43.600,18.800 43.600,18.800 43.600,18.800 43.600,18.800 Z " />
</svg>